# xmcd
#
# Track frame offsets:
#	150
#	12248
#	27913
#	42991
#	58892
#	73306
#	91993
#	106912
#	120049
#	142097
#	155956
#	170360
#	184686
#	197063
#	214662
#	233286
#	249113
#	264630
#	280067
#	296056
#	314571
#	331821
#
# Disc length: 4653 seconds
#
# Revision: 2
# Processed by: cddbd v1.5.1PL0 Copyright (c) Steve Scherf et al.
# Submitted via: audiograbber 1.80
#
DISCID=3e122b16
DTITLE=Dave Loggins - The Good Side Of Tomorrow
DYEAR=1900
DGENRE=
TTITLE0=Good Side Of Tomorrow
TTITLE1=Pieces Of April
TTITLE2=Claudia
TTITLE3=Touch Of Pennsylvania
TTITLE4=Sister Mary Ryan
TTITLE5=Please Come To Boston
TTITLE6=Someday
TTITLE7=Girl From Knoxville
TTITLE8=Sunset Woman
TTITLE9=Second Hand Lady
TTITLE10=Wonder'n As The Days Go By
TTITLE11=Movin' To The Country
TTITLE12=I'm Gonna Farm You Off My Mind
TTITLE13=Goodbye Miss Sadness
TTITLE14=Saviour Of My Natural Life
TTITLE15=Ship In A Bottle
TTITLE16=Goodbye Eyes
TTITLE17=Please Remember Me
TTITLE18=So Much For Dreams
TTITLE19=The Fool In Me 
TTITLE20=Tell Me Anything But The Truth
TTITLE21=Nobody Loves Me Like You Do
EXTD=
EXTT0=
EXTT1=
EXTT2=
EXTT3=
EXTT4=
EXTT5=
EXTT6=
EXTT7=
EXTT8=
EXTT9=
EXTT10=
EXTT11=
EXTT12=
EXTT13=
EXTT14=
EXTT15=
EXTT16=
EXTT17=
EXTT18=
EXTT19=
EXTT20=
EXTT21=
PLAYORDER=
